<svg version="1.1" xmlns="http://www.w3.org/2000/svg" viewBox="0 0 1898.7142857142858 1562.7986474984584" width="1898.7142857142858" height="1562.7986474984584">
  <!-- svg-source:excalidraw -->
  
  <defs>
    <style>
      @font-face {
        font-family: "Virgil";
        src: url("https://excalidraw.com/Virgil.woff2");
      }
      @font-face {
        font-family: "Cascadia";
        src: url("https://excalidraw.com/Cascadia.woff2");
      }
    </style>
  </defs>
  <rect x="0" y="0" width="1898.7142857142858" height="1562.7986474984584" fill="#ffffff"></rect><g stroke-linecap="round" transform="translate(10 455.85714285714283) rotate(0 167 287)"><path d="M0.14 0.6 C94.85 2.49, 190.33 3.33, 332.95 0.97 M-0.19 -0.52 C106.86 2.49, 215.1 2.65, 334.64 -0.65 M333.9 -0.4 C335.66 148.25, 335.83 297.63, 333.84 574.16 M333.87 0.15 C336.24 178.71, 335.56 358.54, 333.97 573.89 M335.33 575.12 C240.1 573.14, 146.01 571.66, -1.05 573.5 M334.67 574.17 C214.24 575.92, 93.55 575.28, 0.31 574.22 M-0.57 574.26 C0.66 445.47, 1.46 316.47, 0.74 0.69 M0.24 574.22 C-0.48 414.11, -0.73 254.29, 0.33 0.16" stroke="#000000" stroke-width="1" fill="none"></path></g><g stroke-linecap="round" transform="translate(402 452.85714285714283) rotate(0 167 287)"><path d="M-0.98 -1.07 C122.36 1.12, 242.13 0.38, 333.61 0.58 M0.51 0.18 C108.02 0.37, 216.24 -0.01, 333.77 0.6 M333.87 0.53 C332.9 195.23, 334.37 390.29, 334.78 573.63 M334.02 -0.1 C333.41 116.85, 333.97 233.39, 333.64 573.87 M332.87 574.18 C244.81 571.18, 152.3 571.76, 0.08 574.11 M333.84 574.21 C215.03 574.11, 97.61 574.01, 0.12 573.93 M0.48 574.06 C-1.1 360.95, -1.16 148.74, -0.62 0.09 M0.07 573.91 C0.26 393.52, 0.31 213.7, 0.08 0.23" stroke="#000000" stroke-width="1" fill="none"></path></g><g stroke-linecap="round" transform="translate(784 452.85714285714283) rotate(0 167 287)"><path d="M0.37 1.06 C105.28 0.63, 212.26 -0.91, 335.04 -0.51 M-0.4 0.25 C100.62 -2.09, 201.57 -2.1, 334.48 0.06 M333.72 -0.45 C335.76 135.62, 336.3 272.6, 334.06 573.52 M333.83 -0.21 C335.97 176.1, 335.96 352.17, 333.89 573.7 M334.86 573.21 C217.06 575.31, 102.24 575.55, 0.58 574.99 M334.32 573.39 C213.68 572.1, 94.17 571.56, 0.26 573.59 M-0.22 573.77 C1.39 433.56, 0.18 292.62, 0.06 -0.5 M0.33 573.98 C-1.17 369.74, -0.51 164.87, -0.17 -0.27" stroke="#000000" stroke-width="1" fill="none"></path></g><g stroke-linecap="round" transform="translate(1549.7142857142858 10) rotate(0 167 287)"><path d="M-0.21 -1.09 C130.2 0.65, 258.5 1, 334.88 -0.62 M0.27 0.6 C90.79 1.82, 181.07 1, 333.52 0.04 M333.53 0.25 C336.11 127.94, 336.16 254.73, 334.79 574.49 M333.63 -0.27 C333.84 128.62, 333.94 256.81, 333.63 574.33 M333.01 575 C202.04 573.58, 68.17 572.4, 0.86 572.78 M334.15 573.49 C232.79 572.36, 131.96 572.67, 0.11 574.23 M0.12 573.73 C2.52 447.09, 2.07 319.67, -0.7 0.58 M0.09 573.77 C1.96 453.94, 2.17 333.67, 0.17 -0.39" stroke="#000000" stroke-width="1" fill="none"></path></g><g stroke-linecap="round" transform="translate(1552.5 646) rotate(0 167 287)"><path d="M-1.22 0.38 C80.34 -0.43, 158.05 -2.01, 335.3 0.14 M0.59 0.11 C89.52 -1.14, 178.95 -1.36, 334.22 0.46 M334.22 0.39 C334.59 167.49, 334.48 337.13, 334.55 574.26 M333.98 -0.02 C332.47 117.76, 332.57 235.45, 333.93 573.68 M334.53 573.03 C244.12 573.8, 155.61 573.27, -0.2 575.13 M334.21 573.55 C250.94 574.96, 167.76 574.52, 0.08 574.11 M-0.22 574.56 C-2.33 382.69, -1.78 191.17, -0.4 0.05 M0 574.26 C0.72 380.02, 0.61 186.59, -0.12 -0.09" stroke="#000000" stroke-width="1" fill="none"></path></g><g stroke-linecap="round" transform="translate(1150 451.85714285714283) rotate(0 167 287)"><path d="M-0.96 0.67 C69.38 0.86, 138.05 0.19, 334.25 1.27 M-0.39 -0.06 C68.5 2.62, 136.51 1.39, 333.61 0.26 M334.55 0.16 C332.77 227.84, 332.62 456.85, 333.46 573.54 M334.19 0.39 C333.36 142.28, 333.28 283.98, 333.72 573.9 M333.75 574.12 C257.1 574.32, 178.32 575.03, 0.27 574.61 M334.51 574.25 C261.34 571.52, 189.49 572.13, -0.15 574.37 M0.23 574.49 C2.57 420.02, 1.72 264.75, -0.42 0.36 M-0.2 573.79 C1.43 369.21, 1.65 164.33, 0.16 -0.2" stroke="#000000" stroke-width="1" fill="none"></path></g><g transform="translate(55 628.8571428571429) rotate(0 118 23)"><text x="0" y="32" font-family="Virgil, Segoe UI Emoji" font-size="36px" fill="#000000" text-anchor="start" style="white-space: pre;" direction="ltr">Memory Game</text></g><g transform="translate(423 615.8571428571429) rotate(0 146 23)"><text x="0" y="32" font-family="Virgil, Segoe UI Emoji" font-size="36px" fill="#000000" text-anchor="start" style="white-space: pre;" direction="ltr">Select Difficulty</text></g><g transform="translate(845 615.8571428571429) rotate(0 106 23)"><text x="0" y="32" font-family="Virgil, Segoe UI Emoji" font-size="36px" fill="#000000" text-anchor="start" style="white-space: pre;" direction="ltr">Select Deck</text></g><g stroke-linecap="round" transform="translate(115 725.8571428571429) rotate(0 62 18)"><path d="M0.7 0.57 C39.66 -0.42, 78.9 -1.65, 123.47 -0.06 M0.17 -0.9 C36.06 -0.62, 71.39 -0.58, 124.49 -0.07 M125.88 -1.09 C125.64 11.89, 123.21 25.83, 125.37 36.59 M123.17 0.07 C123.51 13.14, 124.03 24.79, 124.53 36.39 M123.88 35.28 C86.62 34.55, 48.63 37.06, -0.05 37 M124.94 36.1 C83.84 35.85, 42.85 35.76, -0.51 36.04 M-1.66 35.13 C0.93 23.85, 1.37 9.65, 0.27 -0.36 M-0.92 35.28 C-0.07 28.27, 0.65 19.84, -0.39 0.34" stroke="#000000" stroke-width="1" fill="none"></path></g><g stroke-linecap="round" transform="translate(507 722.8571428571429) rotate(0 62 18)"><path d="M1.58 1.38 C35.51 1.26, 71.77 1.84, 124.47 0.14 M-0.12 0.6 C37.41 -0.29, 74.39 0.57, 124.4 -0.15 M122.1 -0.4 C125.73 8.77, 125.88 19.09, 122.07 35.76 M123.19 0.4 C124.61 10.69, 123.11 21, 123.71 35.39 M125.77 34.86 C96.67 35.88, 72.2 36.33, 1.1 34.19 M123.31 36.22 C87.95 36.47, 50.27 36.28, 0.71 36.32 M-0.94 35.61 C-1.29 24.28, -1.76 10.15, 0.28 -0.32 M-0.26 35.2 C-0.21 21.89, 0.13 8.22, -0.76 0.2" stroke="#000000" stroke-width="1" fill="none"></path></g><g stroke-linecap="round" transform="translate(874.5 722.8571428571429) rotate(0 76.5 18.5)"><path d="M-0.83 1.91 C51.21 -1.56, 102.29 -1.95, 153.03 0.76 M-0.18 -0.17 C59.37 -0.76, 119.2 -0.47, 152.37 0.66 M153.6 -1.33 C154.81 11.33, 153.03 20.01, 153.14 38.85 M152.63 -0.36 C152.44 11.75, 152.56 24.36, 153.47 36.8 M151.7 38.38 C105.06 37.84, 56.94 37.57, 1.18 36.06 M152.32 37.08 C120.14 34.89, 88.01 35.01, -0.55 36.65 M1.47 37.35 C-1.46 24.89, 0.26 12.59, 1.13 0.75 M-0.79 37.79 C0.56 28.79, -0.74 19.75, 0.05 -0.83" stroke="#000000" stroke-width="1" fill="none"></path></g><g stroke-linecap="round" transform="translate(874.5 854.8571428571429) rotate(0 76.5 18.5)"><path d="M-0.51 0.43 C36.66 2.87, 76.84 2.86, 151.68 1.75 M-0.4 0.03 C41.54 0.23, 84.33 -0.75, 153.74 -0.92 M154.31 -1.65 C151.98 13.63, 150.7 24.73, 154.66 38.88 M153.04 0.61 C151.86 7.77, 153.24 16.14, 152.35 37.51 M153.72 36.52 C115.71 34.32, 80.11 34.53, -1.89 35.46 M153.9 36.01 C99.04 39.02, 45.69 38.66, 0 36.91 M-0.71 35.31 C0.98 27.6, 0.05 16.66, -0.2 -0.34 M-0.33 36.89 C0.28 25.52, 0.68 15.53, -0.51 -0.64" stroke="#000000" stroke-width="1" fill="none"></path></g><g stroke-linecap="round" transform="translate(874.5 777.8571428571429) rotate(0 76.5 31)"><path d="M-0.17 1.35 C49.09 0.3, 97.57 1.34, 153.54 1.23 M0.95 -0.51 C38.61 -0.76, 76.42 -0.53, 152.89 -0.19 M154.19 0.53 C151.51 17.26, 152.2 30.27, 153.9 62.06 M152.39 0.53 C151.47 20.03, 152.43 40.78, 152.61 61.3 M154.94 60.98 C119.53 60.08, 85.27 60.68, -0.63 62.86 M152.67 61.36 C120.85 61.27, 89.37 60.87, 0.01 61.58 M2 61.31 C1.92 48.75, 0.14 30.71, 1.02 0.09 M-0.9 61.75 C0.52 41.23, 1.06 22.22, 0.75 -0.66" stroke="#000000" stroke-width="1" fill="none"></path></g><g stroke-linecap="round" transform="translate(507 768.8571428571429) rotate(0 62 18)"><path d="M1.38 -0.67 C28.48 -1.55, 57.25 -0.51, 124.14 0.03 M0.6 0.05 C46.63 -0.18, 94.09 0.56, 123.85 -0.22 M123.6 1.79 C123 12.17, 123.31 18.52, 123.76 35.93 M124.4 0.59 C123.92 10.05, 123.57 21.61, 123.39 35.09 M122.86 34.63 C96.86 37.22, 70.46 38.19, -1.81 35.96 M124.22 36.91 C89.88 35.32, 55.49 35.85, 0.32 36.62 M-0.39 34.92 C1.29 21.52, 0.21 10.4, -0.32 1.88 M-0.8 35.86 C0.15 24.75, 0.66 12.33, 0.2 -0.19" stroke="#000000" stroke-width="1" fill="none"></path></g><g stroke-linecap="round" transform="translate(507 814.8571428571429) rotate(0 62 18)"><path d="M-1.11 0.28 C41.98 0.16, 88 -0.51, 122.37 -0.59 M0.74 0.99 C43.26 -0.93, 84.69 -0.82, 124.87 0.97 M124.79 -1.27 C123.05 12.99, 122.64 28.08, 122.88 36.43 M123.34 0.07 C124.15 9.79, 124.73 21.91, 124.12 35.06 M125.04 36.75 C89.77 34.34, 56.83 36.64, -0.54 37.22 M123.49 35.59 C76.2 37.02, 30.11 36.99, -0.57 35.41 M-1.63 37.41 C0.1 25.12, 0.95 18.86, -0.17 -0.09 M-0.6 35.55 C0.29 22.36, -0.62 9.99, 0.94 0.83" stroke="#000000" stroke-width="1" fill="none"></path></g><g stroke-linecap="round" transform="translate(12 980.8571428571429) rotate(0 165.5 24)"><path d="M1.17 0.87 C130.51 1.54, 259.61 1.6, 329.83 -1.35 M-0.33 -0.12 C113.41 -1.57, 225.98 -1.61, 330.68 0.4 M330.02 0.68 C329.78 16.39, 331.75 31, 330.44 48.08 M331.34 0.57 C331.35 15.84, 330.84 30.47, 331.33 48.97 M331.05 47.23 C221.8 48, 111.6 49.58, -0.75 48.1 M330.8 48.31 C231.64 50.5, 131.83 50.58, -0.66 47.88 M-0.54 47.01 C0.41 36.12, 1.89 24.91, 1.51 -0.41 M-0.95 47.91 C-0.82 31.89, 0.42 15.84, 0.24 -0.59" stroke="#000000" stroke-width="1" fill="none"></path></g><g stroke-linecap="round" transform="translate(404 977.8571428571429) rotate(0 165.5 24)"><path d="M0.19 -0.39 C126.02 1.07, 250.97 0.77, 332.03 0.35 M0.02 -0.23 C95.81 0.16, 190.31 -0.26, 330.89 0.45 M329.76 1.94 C329.98 7.92, 330.67 19.63, 331.08 47.48 M331.02 -0.9 C330.86 10.24, 330.58 20.17, 330.17 48.13 M330.8 48.08 C202.48 47.2, 72.51 46.43, -0.33 48.43 M331.05 48.12 C254.56 50.53, 178.48 50.47, 0.41 48.05 M1.32 46.46 C0.33 36.13, -0.23 25.59, 0.36 -0.43 M0.07 48.2 C0.96 34.11, 0.58 21.56, 0.65 -0.35" stroke="#000000" stroke-width="1" fill="none"></path></g><g stroke-linecap="round" transform="translate(786 977.8571428571429) rotate(0 165.5 24)"><path d="M-0.25 1.05 C85.03 -0.92, 171.61 0.24, 330.19 0.51 M-0.13 0.48 C93.43 -0.72, 187.18 -0.38, 330.76 -0.38 M331.73 0.16 C329.47 15.97, 332.53 32.45, 330.14 46.93 M330.19 -0.28 C330.08 13.09, 330.62 25.39, 331.64 47.41 M332.19 48.59 C254.27 49.39, 174.89 47.41, 0.65 46.77 M330.51 48.26 C253.91 47.25, 177.41 47.71, -0.19 47.8 M-0.53 48.16 C-1.33 31.2, 0.66 10.62, 1.66 -0.1 M0.08 47.57 C-1.06 37.43, -1.21 26.28, 0.43 0.17" stroke="#000000" stroke-width="1" fill="none"></path></g><g stroke-linecap="round" transform="translate(1551.7142857142858 535) rotate(0 165.5 24)"><path d="M-0.72 0.89 C121.66 -0.34, 244.65 -0.68, 331.55 1.21 M-0.21 -0.49 C113.78 -0.83, 227.93 -0.01, 330.6 0.21 M331.4 1.98 C332.62 16.23, 331.12 33.74, 329.15 46.65 M331.86 -0.91 C332.3 17.28, 330.49 31.97, 330.27 48.74 M330.87 48.87 C219.57 46.33, 109.95 45.13, 0.3 46.98 M331.6 48.11 C238.03 47.89, 144.07 47.82, 0.1 47.77 M0.11 46.25 C1.28 27.03, -2.04 11.66, 0.47 -1.16 M0.02 48.44 C-1.11 36.35, 0.72 24.65, -0.4 -0.97" stroke="#000000" stroke-width="1" fill="none"></path></g><g stroke-linecap="round" transform="translate(1557.7142857142858 1171) rotate(0 165.5 24)"><path d="M0.39 0.94 C103.03 1.27, 203.68 3.36, 331.14 -0.44 M0.11 0.05 C119.33 -1.96, 238.62 -1.74, 331.46 -0.05 M331.97 1.54 C329.22 15.61, 332.69 30.06, 331.64 46.1 M330.95 -0.04 C331.97 11.43, 332.37 22.3, 330.2 47.67 M330.03 47.2 C206.08 48.67, 79.62 48.68, 1.14 47.29 M330.55 47.74 C216.61 48.07, 101.6 48.79, 0.11 48.23 M1.39 46.21 C0.03 29.81, -0.16 11.45, 0.12 0.76 M0.64 48.3 C-0.58 34.88, 0.56 21.44, -0.23 0.49" stroke="#000000" stroke-width="1" fill="none"></path></g><g stroke-linecap="round" transform="translate(1152 976.8571428571429) rotate(0 165.5 24)"><path d="M0.18 0.25 C106.71 -0.96, 211.85 -0.88, 330.21 -0.12 M-0.65 -0.39 C124.48 -1.1, 248.09 -1.98, 331.47 0.14 M330.75 -1.34 C329.46 12.84, 329.92 28.64, 331.93 49.96 M330.26 -0.7 C330.93 15.71, 331.52 33.47, 330.81 48.09 M330.5 48.28 C222.38 45.07, 113.58 45.04, 1.04 48.51 M331.07 47.85 C263.28 46.27, 194.2 47.13, 0.19 48.41 M-1.83 46.94 C0.74 31.73, -1.45 15.07, -1.01 -1.07 M-0.54 48.39 C-0.42 34.09, -0.14 21.04, 0.78 -0.48" stroke="#000000" stroke-width="1" fill="none"></path></g><g transform="translate(120 730.8571428571429) rotate(0 57 13)"><text x="57" y="18" font-family="Virgil, Segoe UI Emoji" font-size="20px" fill="#000000" text-anchor="middle" style="white-space: pre;" direction="ltr">Play</text></g><g transform="translate(512 727.8571428571429) rotate(0 57 13)"><text x="57" y="18" font-family="Virgil, Segoe UI Emoji" font-size="20px" fill="#000000" text-anchor="middle" style="white-space: pre;" direction="ltr">Easy</text></g><g transform="translate(879.5 728.3571428571429) rotate(0 71.5 13)"><text x="71.5" y="18" font-family="Virgil, Segoe UI Emoji" font-size="20px" fill="#000000" text-anchor="middle" style="white-space: pre;" direction="ltr">Dragon Ball</text></g><g transform="translate(879.5 860.3571428571429) rotate(0 71.5 13)"><text x="71.5" y="18" font-family="Virgil, Segoe UI Emoji" font-size="20px" fill="#000000" text-anchor="middle" style="white-space: pre;" direction="ltr">Demonslayer</text></g><g transform="translate(879.5 782.8571428571429) rotate(0 71.5 26)"><text x="71.5" y="18" font-family="Virgil, Segoe UI Emoji" font-size="20px" fill="#000000" text-anchor="middle" style="white-space: pre;" direction="ltr">Attack on </text><text x="71.5" y="44" font-family="Virgil, Segoe UI Emoji" font-size="20px" fill="#000000" text-anchor="middle" style="white-space: pre;" direction="ltr">Titan</text></g><g transform="translate(512 773.8571428571429) rotate(0 57 13)"><text x="57" y="18" font-family="Virgil, Segoe UI Emoji" font-size="20px" fill="#000000" text-anchor="middle" style="white-space: pre;" direction="ltr">Normal</text></g><g transform="translate(512 819.8571428571429) rotate(0 57 13)"><text x="57" y="18" font-family="Virgil, Segoe UI Emoji" font-size="20px" fill="#000000" text-anchor="middle" style="white-space: pre;" direction="ltr">Hard</text></g><g transform="translate(29 996.3571428571429) rotate(0 89 10.5)"><text x="0" y="15" font-family="Virgil, Segoe UI Emoji" font-size="16px" fill="#000000" text-anchor="start" style="white-space: pre;" direction="ltr">Powered by dastasoft</text></g><g transform="translate(421 993.3571428571429) rotate(0 89 10.5)"><text x="0" y="15" font-family="Virgil, Segoe UI Emoji" font-size="16px" fill="#000000" text-anchor="start" style="white-space: pre;" direction="ltr">Powered by dastasoft</text></g><g transform="translate(803 993.3571428571429) rotate(0 89 10.5)"><text x="0" y="15" font-family="Virgil, Segoe UI Emoji" font-size="16px" fill="#000000" text-anchor="start" style="white-space: pre;" direction="ltr">Powered by dastasoft</text></g><g transform="translate(1568.7142857142858 550.4999999999998) rotate(0 89 10.5)"><text x="0" y="15" font-family="Virgil, Segoe UI Emoji" font-size="16px" fill="#000000" text-anchor="start" style="white-space: pre;" direction="ltr">Powered by dastasoft</text></g><g transform="translate(1574.7142857142858 1186.4999999999998) rotate(0 89 10.5)"><text x="0" y="15" font-family="Virgil, Segoe UI Emoji" font-size="16px" fill="#000000" text-anchor="start" style="white-space: pre;" direction="ltr">Powered by dastasoft</text></g><g transform="translate(1169 992.3571428571429) rotate(0 89 10.5)"><text x="0" y="15" font-family="Virgil, Segoe UI Emoji" font-size="16px" fill="#000000" text-anchor="start" style="white-space: pre;" direction="ltr">Powered by dastasoft</text></g><g stroke-linecap="round" transform="translate(1410 465.85714285714283) rotate(0 30.5 29)"><path d="M17.68 3.39 C23.07 0.62, 31.66 0.08, 37.96 1.52 C44.26 2.97, 51.77 6.83, 55.49 12.06 C59.21 17.28, 60.99 26.54, 60.29 32.87 C59.59 39.2, 55.77 45.91, 51.28 50.03 C46.8 54.14, 39.86 57.25, 33.39 57.55 C26.92 57.86, 17.85 55.27, 12.49 51.85 C7.12 48.42, 2.7 42.95, 1.21 37 C-0.28 31.05, 0.01 21.99, 3.55 16.14 C7.09 10.29, 18.71 4.32, 22.46 1.91 C26.21 -0.51, 25.97 1.3, 26.06 1.66 M17.73 3.79 C23.33 1.31, 31.87 -0.16, 38.28 1.52 C44.68 3.2, 52.52 8.66, 56.15 13.87 C59.78 19.09, 60.62 26.84, 60.06 32.82 C59.5 38.8, 57.46 45.79, 52.81 49.77 C48.15 53.76, 38.94 56.42, 32.12 56.74 C25.31 57.06, 17.13 54.94, 11.93 51.68 C6.73 48.41, 2.32 43.34, 0.9 37.14 C-0.51 30.95, 0.6 20.48, 3.43 14.5 C6.27 8.52, 15.32 3.19, 17.9 1.24 C20.47 -0.71, 18.71 2.15, 18.9 2.79" stroke="#000000" stroke-width="1" fill="none"></path></g><g stroke-linecap="round" transform="translate(1168 471.85714285714283) rotate(0 66 21.5)"><path d="M-0.43 -0.74 C36.63 3.06, 73.24 -0.86, 131.24 -1.48 M0.06 -0.22 C41.61 -0.35, 83.61 0.32, 131.09 0.59 M133.5 -1.56 C130.25 11.62, 131.1 27.82, 132.74 43.31 M131.82 0.21 C131.25 15.97, 130.65 32.08, 131.81 43.81 M131.43 44.14 C92.44 40.83, 55.84 42.71, 0.89 43.4 M132.76 42.48 C86.21 43.22, 41.49 43.26, 0.78 43.13 M1.6 44.07 C0.09 25.87, 0.59 9.19, -1.87 0.8 M0.03 43.72 C0.54 32.69, 0.3 24.2, -0.61 -0.54" stroke="#000000" stroke-width="1" fill="none"></path></g><g transform="translate(1182 487.35714285714283) rotate(0 44 10.5)"><text x="0" y="15" font-family="Virgil, Segoe UI Emoji" font-size="16px" fill="#000000" text-anchor="start" style="white-space: pre;" direction="ltr">Matches: X</text></g><g stroke-linecap="round" transform="translate(1175 558.8571428571429) rotate(0 38.5 37.5)"><path d="M-0.97 -0.63 C29.1 -0.59, 57.31 -1.35, 75.97 -1.08 M-0.47 0.3 C29.4 0.34, 59.89 0.04, 76.67 -0.44 M78.49 0.2 C77.87 29.01, 76.48 57.79, 76.19 73.13 M77.79 0.27 C78.74 17.79, 78.54 36.66, 77.61 75.06 M77.86 73.69 C57.75 74.83, 35.77 73.22, -1.84 74.42 M76.5 75.62 C56.75 75.02, 37.05 73.88, -0.33 74.96 M0.43 76.15 C-1.15 53.56, 2.05 29.92, 0.27 -2 M-0.94 74.78 C-0.54 54.45, -0.95 32.54, -0.9 0.54" stroke="#000000" stroke-width="1" fill="none"></path></g><g stroke-linecap="round" transform="translate(1176 653.8571428571429) rotate(0 38.5 37.5)"><path d="M-1.32 1.23 C29.62 -0.05, 60.76 1.4, 78.37 -1.75 M-0.54 -0.27 C27.03 -1.33, 56.04 -1.03, 77.17 0.02 M77.04 -1.69 C78.48 25.34, 77.49 49.65, 78.8 75.97 M76.91 0.16 C77.5 17.98, 77.49 34.06, 77.72 75.98 M75.51 73.49 C51.43 73.71, 24.58 77.23, -1.13 73.19 M76.33 74.22 C49.92 75.02, 21.43 75.84, -0.67 74.31 M-1.87 75.53 C-2.4 48.01, -0.69 19.34, -0.4 1.72 M0.77 74.55 C-0.1 46.12, 0.96 19.17, 0.01 -0.54" stroke="#000000" stroke-width="1" fill="none"></path></g><g stroke-linecap="round" transform="translate(1177 747.8571428571429) rotate(0 38.5 37.5)"><path d="M1.84 -1.13 C22.16 -0.36, 40 0.45, 77.87 -0.98 M0.26 0.21 C15.71 -0.36, 32.6 -0.81, 77.19 0.43 M76.27 -0.03 C75.88 20.18, 76.47 41.89, 78.33 76.62 M76.84 0.17 C76.89 27.42, 78.12 55.89, 77.16 75.18 M75.05 73.27 C56.5 73.31, 34.58 73.18, -1.52 75.32 M77.26 74.71 C58.21 75.15, 41.43 75.47, 0.26 74.92 M1.28 73.17 C-0.27 51.78, 2.43 26.08, -0.13 -1.48 M-0.07 75.71 C0.19 55.63, -0.62 34.03, -0.52 0.45" stroke="#000000" stroke-width="1" fill="none"></path></g><g stroke-linecap="round" transform="translate(1270 558.8571428571429) rotate(0 38.5 37.5)"><path d="M0.86 -1.31 C20.32 -0.3, 37.92 -1.91, 75.16 -0.58 M-0.5 0.62 C20.13 1.35, 40.82 0.2, 76.67 -0.04 M77.43 1.15 C74.72 22.23, 77.92 42.27, 77.27 73 M76.06 -0.22 C76.75 21.82, 76.34 42.29, 76.1 75.54 M77.66 76.52 C52.22 77.14, 29.86 76.44, 1.92 73.93 M77.81 75.54 C60.92 76.24, 44.73 76.27, -0.77 75.89 M1.49 75.04 C0.71 52.9, 0.02 28.63, -0.22 1.75 M0.44 74.27 C-0.38 52.13, 0.32 30.84, -0.22 0.04" stroke="#000000" stroke-width="1" fill="none"></path></g><g stroke-linecap="round" transform="translate(1271 653.8571428571429) rotate(0 38.5 37.5)"><path d="M1.23 -0.49 C15.91 1.06, 33.51 1.88, 75.25 1.27 M-0.27 -0.95 C26.74 0.49, 54.67 0.59, 77.02 0.42 M75.31 0.73 C77.38 29.71, 76.06 61.73, 77.97 73.65 M77.16 -0.01 C77.91 27.6, 76.54 55.95, 77.98 75.32 M75.49 74.96 C58.4 73.07, 45.17 73.3, -1.81 76.29 M76.22 75.98 C54.37 75.03, 32.83 73.82, -0.69 75.78 M0.53 73.08 C1.34 47.51, 1 20.04, 1.72 1.48 M-0.45 74.3 C-1.19 58.95, -0.08 42.19, -0.54 0.28" stroke="#000000" stroke-width="1" fill="none"></path></g><g stroke-linecap="round" transform="translate(1272 747.8571428571429) rotate(0 38.5 37.5)"><path d="M-1.13 1.98 C17.67 -1.06, 36.47 0.16, 76.02 -1.8 M0.21 -0.45 C26.07 0.07, 51.35 0, 77.43 -0.23 M76.97 -0.38 C76.49 15.33, 77.42 31.56, 78.62 76.48 M77.17 -0.53 C75.77 27.44, 76.19 53.64, 77.18 74.82 M75.27 76.2 C47.37 75.22, 19.26 72.73, 0.32 73.73 M76.71 74.43 C55.63 76.06, 35.09 75.47, -0.08 75.33 M-1.83 74.11 C1.22 60.49, 0.52 42.23, -1.48 -0.62 M0.71 75.27 C1.16 51.1, -0.26 27.76, 0.45 -0.03" stroke="#000000" stroke-width="1" fill="none"></path></g><g stroke-linecap="round" transform="translate(1364 556.8571428571429) rotate(0 38.5 37.5)"><path d="M-1.4 0.27 C14.49 -0.92, 33.37 -1.27, 75.11 -0.45 M-0.08 -0.9 C20.57 0.61, 39.65 1.13, 77.33 0.76 M78.05 1.92 C76.59 14.25, 75.78 33.04, 78.62 76.08 M77.95 -0.77 C78.58 21.62, 77.53 42.35, 77.75 75.02 M75.42 74.78 C53.36 74.9, 24.72 74.39, 0.88 73.55 M77.37 74.78 C61.23 75.29, 46.13 74.64, -0.69 74.98 M0.78 76.1 C-0.68 54.5, -0.75 28.59, -1.47 0.08 M-0.45 75.22 C0.86 51.91, 1.35 28.24, 0.94 -0.89" stroke="#000000" stroke-width="1" fill="none"></path></g><g stroke-linecap="round" transform="translate(1365 652.8571428571429) rotate(0 38.5 37.5)"><path d="M-0.49 -0.25 C21.64 0.72, 43.56 -2.22, 78.27 1.18 M-0.95 -0.89 C27.57 -0.39, 55.17 0.22, 77.42 1 M77.73 -0.28 C76.76 27.53, 78.82 59.25, 75.65 76.36 M76.99 0.54 C76.91 25.34, 77.65 53.3, 77.32 74.18 M76.96 73.16 C46.98 76.1, 18.55 72.61, 1.29 74.81 M77.98 74.72 C51.44 74.94, 24.11 73.71, 0.78 75.64 M-1.92 76.33 C0.49 53.62, 0.3 31.97, 1.48 -1.63 M-0.7 74.17 C-0.22 49.15, -0.57 22.2, 0.28 -0.07" stroke="#000000" stroke-width="1" fill="none"></path></g><g stroke-linecap="round" transform="translate(1366 746.8571428571429) rotate(0 38.5 37.5)"><path d="M1.98 -0.32 C23.18 0.92, 47.93 -0.54, 75.2 0.69 M-0.45 0.33 C30.24 -0.29, 60.13 0.26, 76.77 -0.98 M76.62 -0.6 C76.94 23.74, 78.06 48.45, 78.48 76.13 M76.47 -0.64 C77.58 16.44, 77.04 33.52, 76.82 75.63 M78.2 73.35 C55.22 72.55, 29.98 74.65, -1.27 74.42 M76.43 74.49 C48.17 74.59, 17.89 74.7, 0.33 74.18 M-0.89 76.77 C1.33 48.03, -0.61 17.45, -0.62 0.23 M0.27 75.81 C-0.48 55.36, -0.47 37.38, -0.03 -0.06" stroke="#000000" stroke-width="1" fill="none"></path></g><g transform="translate(1260 863.3571428571429) rotate(0 59.5 10.5)"><text x="0" y="15" font-family="Virgil, Segoe UI Emoji" font-size="16px" fill="#000000" text-anchor="start" style="white-space: pre;" direction="ltr">Time Left: XXs</text></g><g transform="translate(1600.7142857142856 195.21428571428572) rotate(0 115.99999999999989 18)"><text x="0" y="25" font-family="Virgil, Segoe UI Emoji" font-size="28px" fill="#000000" text-anchor="start" style="white-space: pre;" direction="ltr">Completed in XXs</text></g><g transform="translate(1653.5000000000002 752.2142857142858) rotate(0 65.99999999999989 18)"><text x="0" y="25" font-family="Virgil, Segoe UI Emoji" font-size="28px" fill="#000000" text-anchor="start" style="white-space: pre;" direction="ltr">Time out!</text></g><g transform="translate(1557.4999999999998 840.2142857142858) rotate(0 162.0000000000001 18)"><text x="0" y="25" font-family="Virgil, Segoe UI Emoji" font-size="28px" fill="#000000" text-anchor="start" style="white-space: pre;" direction="ltr">X matches accomplished</text></g><g stroke-linecap="round"><g transform="translate(1499.2857142857144 543.7142857142858) rotate(0 18.431867193430662 -52.39673204674851)"><path d="M-0.98 0.15 C5.36 -17.08, 31.34 -85.8, 37.84 -103.23 M0.71 -0.82 C6.9 -18.4, 30.72 -87.86, 36.81 -104.94" stroke="#000000" stroke-width="1" fill="none"></path></g><g transform="translate(1499.2857142857144 543.7142857142858) rotate(0 18.431867193430662 -52.39673204674851)"><path d="M37.46 -75.21 C38.36 -83.41, 36.27 -90.54, 38.03 -105.72 M37.57 -74.03 C36.82 -83.94, 37.51 -90.88, 37.76 -104.76" stroke="#000000" stroke-width="1" fill="none"></path></g><g transform="translate(1499.2857142857144 543.7142857142858) rotate(0 18.431867193430662 -52.39673204674851)"><path d="M18.08 -81.97 C24.47 -88.1, 27.86 -93.32, 38.03 -105.72 M18.19 -80.79 C22.73 -88.72, 28.66 -93.84, 37.76 -104.76" stroke="#000000" stroke-width="1" fill="none"></path></g></g><g stroke-linecap="round"><g transform="translate(1497.2857142857144 803.7142857142858) rotate(0 24.648555506020784 15.73795652186962)"><path d="M-1.05 0.91 C7.16 6.11, 41.81 26.39, 50.35 31.14 M0.6 0.34 C8.58 5.23, 41.42 24.6, 49.59 29.61" stroke="#000000" stroke-width="1" fill="none"></path></g><g transform="translate(1497.2857142857144 803.7142857142858) rotate(0 24.648555506020784 15.73795652186962)"><path d="M22.48 24.64 C34.06 26.84, 42.36 27.03, 49.19 28.96 M21.19 23.55 C28.44 26.39, 34.51 27.7, 49.15 30.54" stroke="#000000" stroke-width="1" fill="none"></path></g><g transform="translate(1497.2857142857144 803.7142857142858) rotate(0 24.648555506020784 15.73795652186962)"><path d="M32.74 7.55 C40.3 16.34, 44.58 23.22, 49.19 28.96 M31.45 6.45 C36.11 13.38, 39.7 18.81, 49.15 30.54" stroke="#000000" stroke-width="1" fill="none"></path></g></g><g stroke-linecap="round" transform="translate(1651.7142857142856 289.7142857142857) rotate(0 65.00000000000011 19)"><path d="M1.08 0.08 C37.63 0.98, 78.06 -1.12, 131.6 -1.78 M-0.99 -0.65 C49.39 0.41, 99.54 1.21, 129.82 0.26 M128.8 1 C131.7 8.12, 130.39 18.14, 131.88 37.88 M130.26 -0.71 C130.51 11.52, 130.58 21.25, 129.55 37.13 M131.67 36.72 C94.56 38.29, 57.56 37.83, 0.88 37.36 M129.42 38.95 C90.09 37.67, 52.15 37.45, -0.03 38.71 M0.1 36.09 C0.79 24.94, -1.47 12.11, -0.64 -0.53 M-0.08 38.46 C-0.63 30.47, -0.72 22.68, -0.5 -0.58" stroke="#000000" stroke-width="1" fill="none"></path></g><g stroke-linecap="round" transform="translate(1634.7142857142856 344.7142857142857) rotate(0 82.00000000000011 19)"><path d="M1.3 -0.69 C43.98 -1.12, 88.92 -1.2, 165.75 0.99 M0.2 -0.87 C55.17 0.94, 110.74 2.4, 164.91 0.5 M164.38 0.03 C162.61 9.7, 163.18 21.72, 162.15 39.97 M163.96 -0.06 C163.99 12.53, 163.46 25.52, 163.21 37.77 M163.51 37.81 C123.91 37.4, 84.57 37.77, -1.9 38.66 M164.23 38.67 C125.06 39.15, 84.4 38.19, -0.1 38.55 M-1.64 37.28 C2 28.33, 0.35 15.27, 0.28 1.03 M0.12 38.7 C0.83 27.4, -0.51 15.94, -0.19 0.85" stroke="#000000" stroke-width="1" fill="none"></path></g><g stroke-linecap="round" transform="translate(1648.7142857142856 399.7142857142857) rotate(0 68.00000000000011 18.5)"><path d="M-0.27 1.96 C28.58 2.87, 59.75 0.59, 136.42 1.91 M-0.11 -0.3 C29.09 -0.71, 57.35 -1.79, 135.32 0.02 M134.99 -0.32 C135.51 13.53, 136.62 27.92, 134.46 36.96 M136.97 -0.14 C136.31 10.13, 136.59 20.45, 136.04 36.18 M135.82 38.71 C83.03 39.5, 33.21 37.85, -0.65 36.12 M136.72 36.17 C87.32 37.24, 38.88 36.47, -0.42 36.34 M-0.41 38.45 C1.73 25.25, 0.74 12.59, 1.81 -0.26 M0.3 37.23 C-0.32 22.49, -0.21 9.71, 0.64 0.9" stroke="#000000" stroke-width="1" fill="none"></path></g><g transform="translate(1669.2142857142856 295.2142857142857) rotate(0 47.499999999999886 13)"><text x="0" y="18" font-family="Virgil, Segoe UI Emoji" font-size="20px" fill="#000000" text-anchor="start" style="white-space: pre;" direction="ltr">Try again</text></g><g transform="translate(1649.2142857142856 352.7142857142857) rotate(0 67.49999999999989 10.5)"><text x="0" y="15" font-family="Virgil, Segoe UI Emoji" font-size="16px" fill="#000000" text-anchor="start" style="white-space: pre;" direction="ltr">Change Difficulty</text></g><g transform="translate(1667.2142857142856 407.7142857142857) rotate(0 49.499999999999886 10.5)"><text x="0" y="15" font-family="Virgil, Segoe UI Emoji" font-size="16px" fill="#000000" text-anchor="start" style="white-space: pre;" direction="ltr">Change Deck</text></g><g stroke-linecap="round" transform="translate(1654.4999999999998 925.4285714285716) rotate(0 65.00000000000011 19)"><path d="M0.03 0.1 C42.67 0.31, 86.43 -0.99, 129.1 0.32 M0.39 -1 C27.08 -0.17, 55.99 -1.35, 129.79 0.57 M128.92 0.69 C128.34 9.42, 131.54 18.19, 128.69 37.18 M129.99 -0.56 C129.95 12.02, 128.9 24.1, 130.55 37.69 M128.96 36.77 C88.52 39.75, 45.22 38.06, 1.45 36.13 M129.12 37.49 C80.28 37.12, 28.3 38.68, -0.27 37.42 M1.16 38.51 C-0.02 23.39, -1.58 8.68, -0.28 -1.29 M-0.02 37.43 C-0.23 23.26, 0.54 7.07, 0.17 0.57" stroke="#000000" stroke-width="1" fill="none"></path></g><g stroke-linecap="round" transform="translate(1637.4999999999998 980.4285714285716) rotate(0 82.00000000000011 19)"><path d="M0.1 -0.09 C36.54 0.89, 71.11 -0.93, 164.32 -1.68 M-1 -1 C33.38 -0.81, 65.19 -0.84, 164.57 -0.55 M164.69 -1.41 C164.38 10.66, 163.85 16.42, 163.18 38.1 M163.44 0.24 C164.46 7.69, 164.95 17.55, 163.69 38.24 M162.77 38.68 C121.29 36.7, 75.23 38.59, -1.87 39.79 M163.49 38.89 C104.09 36.09, 46.73 36.29, -0.58 38.96 M0.51 37.78 C0.78 26.84, 1.13 18.96, -1.29 1.92 M-0.57 37.97 C0.4 25.3, -0.74 11.28, 0.57 -0.57" stroke="#000000" stroke-width="1" fill="none"></path></g><g stroke-linecap="round" transform="translate(1651.4999999999998 1035.4285714285716) rotate(0 68.00000000000011 18.5)"><path d="M-0.09 0.67 C45.48 -0.7, 88.23 0.25, 134.32 -1.98 M-1 0.38 C46.42 0.56, 92.96 1.92, 135.45 -0.67 M134.59 0.13 C137.59 13.16, 134.49 26.31, 136.1 35.47 M136.24 0.43 C135.18 12.3, 136.55 22.44, 136.24 36.71 M136.68 38.66 C93.88 36.14, 54.1 34.29, 1.79 38.19 M136.89 36.01 C93.58 36.87, 51.83 35.72, 0.96 36.47 M-0.22 37.45 C-2 29.94, -0.5 19.99, 1.92 1.08 M-0.03 37.31 C0.75 25.96, 0.17 17.16, -0.57 0.15" stroke="#000000" stroke-width="1" fill="none"></path></g><g transform="translate(1671.9999999999998 930.9285714285716) rotate(0 47.500000000000114 13)"><text x="0" y="18" font-family="Virgil, Segoe UI Emoji" font-size="20px" fill="#000000" text-anchor="start" style="white-space: pre;" direction="ltr">Try again</text></g><g transform="translate(1651.9999999999998 988.4285714285716) rotate(0 67.50000000000011 10.5)"><text x="0" y="15" font-family="Virgil, Segoe UI Emoji" font-size="16px" fill="#000000" text-anchor="start" style="white-space: pre;" direction="ltr">Change Difficulty</text></g><g transform="translate(1669.9999999999998 1043.4285714285716) rotate(0 49.500000000000114 10.5)"><text x="0" y="15" font-family="Virgil, Segoe UI Emoji" font-size="16px" fill="#000000" text-anchor="start" style="white-space: pre;" direction="ltr">Change Deck</text></g><g stroke-linecap="round"><g transform="translate(1643.2857142857147 304.7142857142857) rotate(0 -0.47017907819497395 -0.8933200550575862)"><path d="M0.39 0.69 C0.43 0.29, -0.22 -2.19, -0.25 -2.48 M-0.86 0.01 C-0.96 -0.25, -1.39 -0.86, -1.33 -1.37" stroke="#000000" stroke-width="1" fill="none"></path></g><g transform="translate(1643.2857142857147 304.7142857142857) rotate(0 -0.47017907819497395 -0.8933200550575862)"><path d="M-0.91 -0.64 C-1.11 -0.8, -1.1 -0.95, -1.33 -1.41 M-0.97 -0.65 C-1.07 -0.79, -1.17 -1.07, -1.3 -1.41" stroke="#000000" stroke-width="1" fill="none"></path></g><g transform="translate(1643.2857142857147 304.7142857142857) rotate(0 -0.47017907819497395 -0.8933200550575862)"><path d="M-1.48 -0.58 C-1.53 -0.76, -1.38 -0.92, -1.33 -1.41 M-1.54 -0.58 C-1.48 -0.74, -1.42 -1.04, -1.3 -1.41" stroke="#000000" stroke-width="1" fill="none"></path></g></g><g stroke-linecap="round"><g transform="translate(1638.2857142857147 421.38095238095235) rotate(0 -329.913790162032 -45.120190011564006)"><path d="M0.4 -0.49 C-97.65 -18.71, -479.76 -113.44, -589.39 -110.27 C-699.02 -107.09, -646.01 -2.67, -657.38 18.58 M-0.85 -1.79 C-98.44 -19.74, -477.76 -112.51, -587.23 -108.87 C-696.7 -105.23, -646.02 -1.08, -657.64 20.03" stroke="#000000" stroke-width="1" fill="none"></path></g><g transform="translate(1638.2857142857147 421.38095238095235) rotate(0 -329.913790162032 -45.120190011564006)"><path d="M-668.99 -9.82 C-666.64 -0.62, -663.57 4.87, -659.44 18.17 M-668.07 -8.56 C-664.44 -1.44, -662 7.19, -657.18 20.65" stroke="#000000" stroke-width="1" fill="none"></path></g><g transform="translate(1638.2857142857147 421.38095238095235) rotate(0 -329.913790162032 -45.120190011564006)"><path d="M-648.47 -10.02 C-650.41 -0.71, -651.65 4.82, -659.44 18.17 M-647.55 -8.76 C-649.18 -1.66, -652.01 7.02, -657.18 20.65" stroke="#000000" stroke-width="1" fill="none"></path></g></g><g stroke-linecap="round"><g transform="translate(1626.6190476190477 363.0476190476191) rotate(0 -556.4216708378244 -84.93856529380199)"><path d="M0.66 -1.07 C-167.78 -42.87, -829.14 -263.23, -1010.84 -249.87 C-1192.53 -236.5, -1076.69 24.35, -1089.49 79.13 M-0.46 0.98 C-168.96 -40.69, -830.22 -261.43, -1011.35 -248.26 C-1192.47 -235.09, -1074.59 25.4, -1087.21 79.99" stroke="#000000" stroke-width="1" fill="none"></path></g><g transform="translate(1626.6190476190477 363.0476190476191) rotate(0 -556.4216708378244 -84.93856529380199)"><path d="M-1102.87 54.78 C-1096.73 58.9, -1094.49 69.5, -1089.2 81.96 M-1101.46 54.04 C-1095.86 63, -1091.23 72.87, -1087.25 79.44" stroke="#000000" stroke-width="1" fill="none"></path></g><g transform="translate(1626.6190476190477 363.0476190476191) rotate(0 -556.4216708378244 -84.93856529380199)"><path d="M-1082.53 52.08 C-1082.12 57.07, -1085.62 68.44, -1089.2 81.96 M-1081.11 51.34 C-1083.11 61.31, -1086.07 72.19, -1087.25 79.44" stroke="#000000" stroke-width="1" fill="none"></path></g></g><g stroke-linecap="round"><g transform="translate(1644.9523809523812 304.7142857142857) rotate(0 -184.03265311396808 -8.872331312024869)"><path d="M-1.13 -0.13 C-57.47 -25.04, -281.12 -170.73, -339.26 -148.78 C-397.41 -126.82, -348.35 84.67, -349.99 131.6 M0.48 -1.24 C-55.85 -26.05, -281.28 -169.83, -339.82 -147.47 C-398.36 -125.12, -349.32 86.5, -350.76 132.88" stroke="#000000" stroke-width="1" fill="none"></path></g><g transform="translate(1644.9523809523812 304.7142857142857) rotate(0 -184.03265311396808 -8.872331312024869)"><path d="M-364.12 107.14 C-361.85 111.46, -358.6 118.31, -348.94 133.93 M-364.8 106.86 C-358.42 115.56, -354.52 127.45, -351.09 132.77" stroke="#000000" stroke-width="1" fill="none"></path></g><g transform="translate(1644.9523809523812 304.7142857142857) rotate(0 -184.03265311396808 -8.872331312024869)"><path d="M-343.71 105 C-345.53 109.55, -346.36 116.83, -348.94 133.93 M-344.4 104.71 C-346.06 114.3, -350.2 127.03, -351.09 132.77" stroke="#000000" stroke-width="1" fill="none"></path></g></g><g stroke-linecap="round"><g transform="translate(1646.619047619048 944.7142857142858) rotate(0 -161.42613053172522 117.89098157439025)"><path d="M1.16 0.43 C-45.83 39.5, -228.6 216.78, -282.67 233.52 C-336.74 250.27, -316.68 122.76, -323.27 100.9 M0.31 -0.39 C-46.26 38.97, -226.43 218.13, -280.49 235.16 C-334.54 252.2, -316.58 124.31, -324.01 101.82" stroke="#000000" stroke-width="1" fill="none"></path></g><g transform="translate(1646.619047619048 944.7142857142858) rotate(0 -161.42613053172522 117.89098157439025)"><path d="M-311.4 127.68 C-314.45 122.96, -318.9 118.08, -322.82 103.19 M-311.75 130.07 C-316.1 119.09, -320.43 110.46, -323.84 100.84" stroke="#000000" stroke-width="1" fill="none"></path></g><g transform="translate(1646.619047619048 944.7142857142858) rotate(0 -161.42613053172522 117.89098157439025)"><path d="M-331.89 128.89 C-330.01 123.68, -329.54 118.51, -322.82 103.19 M-332.24 131.27 C-329.39 119.69, -326.53 110.63, -323.84 100.84" stroke="#000000" stroke-width="1" fill="none"></path></g></g><g stroke-linecap="round"><g transform="translate(1631.619047619048 1026.3809523809525) rotate(0 -513.4316503518573 262.6815384522204)"><path d="M0.83 -0.01 C-121.76 87.58, -564.98 521.84, -736.4 525.5 C-907.82 529.15, -979.42 106.12, -1027.69 21.95 M-0.2 -1.05 C-122.85 86.63, -566.35 522.34, -737.2 526.42 C-908.06 530.5, -977.3 107.66, -1025.33 23.42" stroke="#000000" stroke-width="1" fill="none"></path></g><g transform="translate(1631.619047619048 1026.3809523809525) rotate(0 -513.4316503518573 262.6815384522204)"><path d="M-1006.37 47.11 C-1012.64 39.78, -1014.54 37.29, -1027.3 24.37 M-1006.13 46.36 C-1010.26 41.55, -1015.52 36.11, -1025.15 23.85" stroke="#000000" stroke-width="1" fill="none"></path></g><g transform="translate(1631.619047619048 1026.3809523809525) rotate(0 -513.4316503518573 262.6815384522204)"><path d="M-1025.75 53.87 C-1027.6 44.87, -1025.08 40.84, -1027.3 24.37 M-1025.51 53.12 C-1024.99 46.8, -1025.61 39.74, -1025.15 23.85" stroke="#000000" stroke-width="1" fill="none"></path></g></g><g stroke-linecap="round"><g transform="translate(1644.952380952381 1066.3809523809525) rotate(0 -336.4291115173387 173.62270540624525)"><path d="M-1.02 -0.38 C-68.03 60.68, -290.15 370.04, -402.14 367.13 C-514.12 364.23, -627.62 46.4, -672.94 -17.82 M0.64 -1.62 C-66.55 59, -290.98 368.3, -403.33 365.25 C-515.69 362.21, -628.35 43.82, -673.5 -19.89" stroke="#000000" stroke-width="1" fill="none"></path></g><g transform="translate(1644.952380952381 1066.3809523809525) rotate(0 -336.4291115173387 173.62270540624525)"><path d="M-652.09 -0.31 C-657.19 -4.93, -663.46 -12.68, -673.21 -21.28 M-652.24 0.73 C-658.01 -4.44, -663.67 -9.4, -673.45 -20.51" stroke="#000000" stroke-width="1" fill="none"></path></g><g transform="translate(1644.952380952381 1066.3809523809525) rotate(0 -336.4291115173387 173.62270540624525)"><path d="M-670.33 9.09 C-670.22 1.91, -671.23 -8.56, -673.21 -21.28 M-670.48 10.13 C-671.48 2.4, -672.43 -4.99, -673.45 -20.51" stroke="#000000" stroke-width="1" fill="none"></path></g></g><g transform="translate(1415 473.85714285714283) rotate(0 25.5 21)"><text x="25.5" y="15" font-family="Virgil, Segoe UI Emoji" font-size="16px" fill="#000000" text-anchor="middle" style="white-space: pre;" direction="ltr">Replay</text><text x="25.5" y="36" font-family="Virgil, Segoe UI Emoji" font-size="16px" fill="#000000" text-anchor="middle" style="white-space: pre;" direction="ltr">Icon</text></g><g stroke-linecap="round"><g transform="translate(355.57142857142867 730.1428571428572) rotate(0 15.899193468096996 -0.14095635069719492)"><path d="M0.78 0.81 C6.03 0.87, 26.86 0.86, 32.07 0.66 M-0.27 0.19 C4.81 -0.13, 26.05 -1.2, 31.33 -1.12" stroke="#000000" stroke-width="1" fill="none"></path></g><g transform="translate(355.57142857142867 730.1428571428572) rotate(0 15.899193468096996 -0.14095635069719492)"><path d="M17.66 5.17 C22.55 3.02, 26.22 -0.25, 30.86 -1.99 M16.66 4.74 C22.2 2.52, 27.57 0.16, 31.33 -1.37" stroke="#000000" stroke-width="1" fill="none"></path></g><g transform="translate(355.57142857142867 730.1428571428572) rotate(0 15.899193468096996 -0.14095635069719492)"><path d="M17.41 -5.66 C22.41 -4.05, 26.18 -3.57, 30.86 -1.99 M16.41 -6.09 C22 -4.43, 27.46 -2.92, 31.33 -1.37" stroke="#000000" stroke-width="1" fill="none"></path></g></g><g stroke-linecap="round"><g transform="translate(745.5714285714289 736.8095238095239) rotate(0 14.687544682994485 1.1027261601140594)"><path d="M-0.63 -0.64 C4.18 -0.17, 25.08 2.27, 30 2.84 M1.24 1.64 C5.8 1.81, 24.05 1.43, 29.06 1.34" stroke="#000000" stroke-width="1" fill="none"></path></g><g transform="translate(745.5714285714289 736.8095238095239) rotate(0 14.687544682994485 1.1027261601140594)"><path d="M14.24 6.75 C22.05 3.33, 27.55 2.35, 30.48 0.32 M14.61 6.65 C20.57 4.52, 25.93 2.76, 29.42 0.89" stroke="#000000" stroke-width="1" fill="none"></path></g><g transform="translate(745.5714285714289 736.8095238095239) rotate(0 14.687544682994485 1.1027261601140594)"><path d="M14.04 -3.53 C21.94 -2.88, 27.51 0.19, 30.48 0.32 M14.42 -3.63 C20.53 -1.89, 25.96 0.22, 29.42 0.89" stroke="#000000" stroke-width="1" fill="none"></path></g></g><g stroke-linecap="round"><g transform="translate(1118.9047619047622 721.8095238095239) rotate(0 17.981462567057406 -0.7202473209549964)"><path d="M-0.42 0.46 C5.45 0.33, 28.09 -1.38, 34.13 -1.9 M1.56 -0.34 C7.9 -0.2, 30.73 -0.23, 36.38 -0.49" stroke="#000000" stroke-width="1" fill="none"></path></g><g transform="translate(1118.9047619047622 721.8095238095239) rotate(0 17.981462567057406 -0.7202473209549964)"><path d="M20.72 4.56 C23.18 5.76, 25.45 3.16, 35.37 0.63 M19.45 6.34 C25.81 2.88, 31.47 1.48, 36.19 -0.83" stroke="#000000" stroke-width="1" fill="none"></path></g><g transform="translate(1118.9047619047622 721.8095238095239) rotate(0 17.981462567057406 -0.7202473209549964)"><path d="M20.48 -7.42 C22.88 -3.71, 25.2 -3.8, 35.37 0.63 M19.21 -5.65 C25.75 -5.2, 31.49 -2.71, 36.19 -0.83" stroke="#000000" stroke-width="1" fill="none"></path></g></g></svg>